<svg width="368" height="560" viewBox="0 0 368 560" fill="none" xmlns="http://www.w3.org/2000/svg">
<path d="M262.4 560C256 560 252.533 557.067 252 551.2L239.2 474.4C239.2 471.733 237.6 470.4 234.4 470.4H132.8C129.6 470.4 128 471.733 128 474.4L115.2 551.2C114.667 557.067 111.2 560 104.8 560H11.2C4.26667 560 1.6 556.533 3.2 549.6L120.8 8.79999C121.867 2.93331 125.333 -3.8147e-05 131.2 -3.8147e-05H239.2C245.067 -3.8147e-05 248.533 2.93331 249.6 8.79999L366.4 549.6L367.2 552.8C367.2 557.6 364.267 560 358.4 560H262.4ZM144 379.2C144 381.867 145.067 383.2 147.2 383.2H219.2C221.867 383.2 222.933 381.867 222.4 379.2L184.8 160.8C184.267 159.2 183.467 158.4 182.4 158.4C181.333 158.4 180.533 159.2 180 160.8L144 379.2Z" fill="black"/>
</svg>
