<svg width="316" height="560" viewBox="0 0 316 560" fill="none" xmlns="http://www.w3.org/2000/svg">
<path d="M9.8 560C7.13334 560 4.73334 559.2 2.6 557.6C1 555.467 0.200003 553.067 0.200003 550.4V9.59998C0.200003 6.93332 1 4.79998 2.6 3.19997C4.73334 1.06663 7.13334 -3.8147e-05 9.8 -3.8147e-05H154.6C203.133 -3.8147e-05 242.067 14.1333 271.4 42.4C300.733 70.6666 315.4 108.267 315.4 155.2V404.8C315.4 451.733 300.733 489.333 271.4 517.6C242.067 545.867 203.133 560 154.6 560H9.8ZM113 459.2C113 461.867 114.333 463.2 117 463.2L153 462.4C167.4 461.867 179.133 455.733 188.2 444C197.267 432.267 202.067 416.8 202.6 397.6V162.4C202.6 142.133 198.067 126.133 189 114.4C179.933 102.667 167.667 96.8 152.2 96.8H117C114.333 96.8 113 98.1333 113 100.8V459.2Z" fill="black"/>
</svg>
