<svg width="337" height="560" viewBox="0 0 337 560" fill="none" xmlns="http://www.w3.org/2000/svg">
<path d="M326.6 -3.8147e-05C329.267 -3.8147e-05 331.4 1.06663 333 3.19997C335.133 4.79998 336.2 6.93332 336.2 9.59998V87.2C336.2 89.8666 335.133 92.2666 333 94.4C331.4 96 329.267 96.8 326.6 96.8H226.6C223.933 96.8 222.6 98.1333 222.6 100.8V550.4C222.6 553.067 221.533 555.467 219.4 557.6C217.8 559.2 215.667 560 213 560H119.4C116.733 560 114.333 559.2 112.2 557.6C110.6 555.467 109.8 553.067 109.8 550.4V100.8C109.8 98.1333 108.467 96.8 105.8 96.8H9.8C7.13333 96.8 4.73333 96 2.6 94.4C1 92.2666 0.2 89.8666 0.2 87.2V9.59998C0.2 6.93332 1 4.79998 2.6 3.19997C4.73333 1.06663 7.13333 -3.8147e-05 9.8 -3.8147e-05H326.6Z" fill="black"/>
</svg>
