<svg width="342" height="560" viewBox="0 0 342 560" fill="none" xmlns="http://www.w3.org/2000/svg">
<path d="M123.4 559.2C120.733 559.2 118.333 558.4 116.2 556.8C114.6 554.667 113.8 552.267 113.8 549.6V341.6L113 336.8L1 11.2C0.466667 10.1333 0.2 8.79998 0.2 7.19996C0.2 2.39996 3.13333 -3.8147e-05 9 -3.8147e-05H107.4C113.267 -3.8147e-05 117 2.66663 118.6 7.99995L168.2 199.2C168.733 200.8 169.533 201.6 170.6 201.6C171.667 201.6 172.467 200.8 173 199.2L222.6 7.99995C224.2 2.66663 227.933 -3.8147e-05 233.8 -3.8147e-05H332.2C335.4 -3.8147e-05 337.8 1.06663 339.4 3.19997C341 4.79998 341.267 7.46664 340.2 11.2L227.4 336.8L226.6 341.6V549.6C226.6 552.267 225.533 554.667 223.4 556.8C221.8 558.4 219.667 559.2 217 559.2H123.4Z" fill="black"/>
</svg>
